<?xml version="1.0" standalone="no"?>
<!DOCTYPE svg PUBLIC "-//W3C//DTD SVG 20010904//EN"
 "http://www.w3.org/TR/2001/REC-SVG-20010904/DTD/svg10.dtd">
<svg version="1.0" xmlns="http://www.w3.org/2000/svg"
 width="300.000000pt" height="300.000000pt" viewBox="0 0 300.000000 300.000000"
 preserveAspectRatio="xMidYMid meet">
<metadata>
Created by potrace 1.10, written by Peter Selinger 2001-2011
</metadata>
<g transform="translate(0.000000,300.000000) scale(0.050000,-0.050000)"
fill="#000000" stroke="none">
<path d="M2680 5909 c-218 -53 -251 -64 -349 -108 -106 -49 -291 -221 -291
-271 0 -18 -18 -30 -45 -30 -116 -2 -415 -225 -415 -311 0 -16 -7 -29 -15 -29
-8 0 -28 -29 -44 -65 -15 -36 -34 -69 -41 -75 -21 -15 -94 -329 -122 -518 -28
-194 3 -553 63 -739 20 -61 29 -127 21 -156 -14 -55 10 -302 39 -398 11 -34
19 -85 19 -114 0 -29 9 -58 20 -65 11 -7 20 -28 20 -46 1 -19 18 -56 40 -84
24 -30 39 -82 40 -130 l0 -80 1535 5 1535 4 0 67 c0 36 14 88 30 115 50 80 77
145 89 219 7 39 22 115 33 170 11 55 25 170 31 255 6 85 19 155 29 155 10 0
18 22 18 49 0 27 9 54 20 61 11 7 20 46 20 87 0 41 10 85 22 97 57 57 23 741
-44 871 -10 19 -18 53 -18 75 0 22 -9 40 -20 40 -11 0 -20 14 -20 30 0 29 -37
108 -61 130 -6 6 -53 70 -104 143 -52 74 -146 177 -209 230 -64 53 -133 113
-154 132 -22 19 -51 35 -64 35 -14 0 -28 7 -31 16 -22 53 -355 174 -627 228
-166 33 -823 36 -950 5z m820 -100 c50 -7 99 -21 109 -31 10 -10 52 -18 93
-18 99 0 438 -144 438 -186 0 -9 8 -11 19 -5 10 7 26 0 35 -14 9 -14 42 -38
73 -55 70 -36 275 -240 262 -261 -5 -8 5 -20 21 -26 17 -7 30 -26 30 -42 0
-17 9 -31 20 -31 11 0 20 -18 20 -40 0 -22 9 -40 20 -40 11 0 20 -13 20 -30 0
-16 9 -30 20 -30 11 0 20 -19 20 -41 0 -23 7 -37 16 -32 8 6 17 -13 20 -41 2
-29 13 -62 23 -75 11 -13 11 -34 2 -50 -11 -18 0 -54 31 -104 28 -45 39 -77
25 -77 -13 0 -18 -6 -11 -12 7 -7 -1 -26 -18 -43 -27 -26 -26 -34 1 -64 28
-30 33 -60 31 -161 -1 -16 1 -52 4 -80 3 -41 -7 -142 -35 -330 -20 -138 -89
-281 -89 -184 0 52 -128 337 -206 459 -41 64 -74 127 -75 140 -1 47 -56 100
-90 87 -26 -10 -31 -28 -20 -82 7 -41 5 -70 -7 -70 -22 0 -191 251 -210 313
-19 62 -92 149 -113 136 -18 -11 -5 -115 21 -169 40 -81 43 -182 6 -162 -85
45 -228 102 -256 102 -16 0 -30 7 -30 16 0 8 -16 16 -35 16 -73 2 -278 31
-355 51 -44 11 -116 28 -160 37 -177 39 -201 47 -216 73 -9 15 -36 27 -60 27
-24 1 -66 18 -94 40 -27 22 -61 39 -75 40 -14 0 -25 9 -25 20 0 11 -10 20 -21
20 -12 0 -33 11 -47 25 -14 14 -56 48 -92 75 -90 67 -200 177 -200 199 0 10
-12 30 -26 45 -120 122 -157 393 -64 469 223 183 765 268 1250 196z m-1493
-554 c47 -97 94 -307 107 -485 6 -77 19 -156 30 -176 15 -29 10 -39 -23 -48
-70 -18 -47 -77 59 -142 l100 -62 0 75 c0 41 -8 84 -17 94 -45 50 -81 395 -44
418 23 15 104 -69 89 -92 -6 -9 -1 -17 11 -17 11 0 21 -10 21 -23 0 -33 114
-137 150 -137 16 0 30 -7 30 -15 0 -18 97 -65 134 -65 14 0 26 -9 26 -20 0
-11 15 -20 33 -20 18 0 83 -17 145 -38 62 -21 162 -48 222 -59 61 -11 158 -30
217 -42 58 -11 154 -21 213 -21 59 0 113 -9 120 -20 7 -11 43 -20 81 -20 38 0
111 -20 163 -44 66 -31 96 -37 101 -20 18 52 110 24 185 -56 82 -87 127 -100
157 -45 17 30 23 27 45 -25 15 -33 50 -96 80 -140 108 -162 156 -313 190 -600
3 -22 -3 -67 -12 -100 -10 -33 -22 -91 -27 -130 -43 -319 -136 -409 -348 -336
-31 10 -45 7 -45 -9 0 -16 -6 -17 -15 -5 -16 22 -467 29 -453 7 4 -7 -22 -6
-59 2 -44 10 -84 6 -115 -10 -62 -33 -102 -10 -137 79 -36 91 -81 111 -81 35
0 -87 -39 -121 -140 -125 -157 -7 -180 -1 -180 42 0 22 -9 40 -20 40 -11 0
-20 15 -20 32 0 25 -6 28 -27 11 -15 -13 -33 -16 -42 -8 -8 8 -12 6 -8 -5 17
-57 -64 -126 -129 -109 -35 10 -149 23 -254 29 -261 14 -260 14 -350 -1 -280
-48 -356 -18 -401 161 -8 33 -19 74 -24 90 -4 17 -7 55 -6 86 1 30 -9 75 -23
100 -61 111 -24 517 60 657 42 70 96 170 120 222 50 108 46 106 126 64 107
-56 169 -3 113 95 -50 89 -95 120 -95 68 0 -21 -19 -26 -75 -18 -75 10 -76 9
-142 -117 -36 -70 -92 -172 -124 -227 -68 -114 -99 -183 -99 -215 0 -12 -7
-15 -15 -7 -15 16 -27 200 -29 467 -1 80 -9 145 -19 145 -25 0 -19 127 14 310
16 88 33 181 38 207 49 284 330 498 418 318z"/>
<path d="M2282 4137 c-60 -10 -145 -38 -189 -62 -162 -91 -96 -145 94 -78 68
24 194 48 281 54 184 12 199 18 171 70 -23 44 -156 50 -357 16z"/>
<path d="M3665 4147 c-27 -11 -35 -86 -10 -88 8 -1 86 -6 173 -11 96 -5 194
-25 248 -49 185 -81 261 -19 85 71 -127 64 -416 109 -496 77z"/>
<path d="M2240 3838 c-60 -22 -128 -46 -151 -54 -163 -56 -319 -316 -263 -440
32 -70 237 -275 268 -268 14 3 26 -1 26 -10 0 -9 25 -18 56 -20 84 -6 160 -21
188 -38 38 -24 223 -11 271 19 14 9 34 10 45 3 11 -7 20 -3 20 9 0 11 14 21
31 21 18 0 44 11 58 25 64 61 113 95 137 95 54 0 112 194 70 236 -13 13 -17
24 -9 24 7 0 0 27 -17 60 -17 33 -26 60 -20 60 7 0 -20 33 -59 73 -39 40 -71
85 -71 99 0 35 -22 46 -122 59 -48 6 -91 18 -97 27 -6 9 -42 22 -81 28 -38 6
-92 16 -120 22 -27 6 -99 -8 -160 -30z m284 -33 c80 -14 213 -138 259 -242 23
-51 50 -113 62 -137 53 -112 -206 -286 -425 -285 -154 1 -372 109 -455 225
l-43 61 44 80 c57 103 196 241 268 267 146 53 178 61 206 51 17 -6 54 -15 84
-20z"/>
<path d="M2290 3734 c-156 -94 -190 -291 -70 -411 255 -255 641 79 397 344
-80 88 -238 120 -327 67z m130 -90 c-1 -57 -32 -88 -82 -81 -61 9 -78 93 -27
130 43 31 109 2 109 -49z m180 -240 c0 -52 -67 -104 -136 -104 l-74 0 85 42
c47 23 85 50 85 60 0 10 9 18 20 18 11 0 20 -7 20 -16z"/>
<path d="M3800 3842 c-38 -8 -98 -30 -132 -48 -35 -18 -68 -27 -75 -20 -22 21
-113 -54 -113 -94 0 -23 -13 -40 -31 -40 -17 0 -26 -9 -19 -20 7 -11 4 -20 -6
-20 -21 0 -50 -75 -45 -115 1 -14 -5 -25 -14 -25 -46 0 -19 -190 35 -243 30
-31 59 -51 64 -46 5 5 21 -14 36 -41 24 -45 45 -59 68 -45 4 3 26 -11 48 -32
33 -29 81 -37 240 -42 110 -3 210 -12 222 -20 12 -7 22 -6 22 3 0 10 25 28 55
42 88 39 153 80 175 110 11 16 40 35 65 42 25 8 45 28 45 45 0 16 9 24 19 17
11 -6 26 11 33 39 7 28 19 47 27 42 28 -17 -16 179 -58 258 -22 44 -41 72 -41
64 0 -9 -23 12 -52 46 -28 33 -60 56 -70 50 -10 -6 -18 -3 -18 7 0 57 -337
118 -480 86z m190 -22 c7 -11 30 -20 53 -20 129 0 400 -315 351 -410 -90 -175
-433 -295 -638 -224 -192 67 -303 183 -258 269 10 19 38 79 64 132 61 127 184
233 270 233 36 0 71 9 78 20 7 11 25 20 40 20 15 0 33 -9 40 -20z"/>
<path d="M3758 3702 c-237 -196 -18 -572 265 -454 196 83 232 378 55 456 -32
14 -58 33 -58 41 0 45 -194 13 -262 -43z m158 -78 c-9 -80 -109 -90 -128 -12
-10 40 -5 61 22 80 53 40 114 0 106 -68z m183 -229 c-1 -58 -54 -95 -131 -92
-43 1 -59 6 -37 11 23 4 64 29 90 56 55 54 79 62 78 25z"/>
<path d="M961 2622 c-40 -57 -43 -79 -34 -317 12 -332 45 -861 63 -1020 15
-119 13 -126 -42 -180 -148 -143 -265 -332 -336 -547 -134 -406 -148 -558 -52
-558 33 0 60 9 60 20 0 11 38 21 85 22 81 1 82 2 30 21 -68 25 -56 251 17 309
15 12 29 49 32 83 2 34 10 58 18 54 7 -5 24 34 37 86 34 136 79 203 106 156
30 -55 54 -1 55 123 0 57 9 109 20 116 11 7 20 30 20 51 0 22 11 39 25 40 14
1 48 30 75 64 28 35 40 57 27 49 -36 -22 -45 29 -17 98 20 49 20 71 0 108 -19
35 -20 63 -5 106 15 42 14 62 -2 72 -32 20 -23 178 10 190 41 16 32 52 -13 52
-27 0 -40 13 -40 42 0 29 9 39 30 31 26 -10 26 -5 -2 37 -36 56 -20 139 24
122 43 -17 33 24 -12 48 -40 21 -53 140 -16 140 9 0 16 9 16 20 0 11 -13 20
-30 20 -16 0 -30 9 -30 20 0 11 10 20 21 20 13 0 16 17 9 40 -9 28 -4 40 19
40 17 0 31 8 31 19 0 24 163 23 192 -2 25 -20 93 -1 79 21 -5 8 17 11 48 6 31
-4 63 2 70 15 11 17 22 17 43 0 15 -13 28 -18 28 -11 0 7 17 4 38 -7 28 -15
41 -13 48 7 8 20 43 26 122 22 61 -2 106 3 100 13 -6 9 -1 17 11 17 11 0 21
-8 21 -19 0 -10 23 -14 52 -9 32 6 46 2 38 -11 -7 -12 3 -21 21 -21 21 0 29
11 22 30 -7 17 -3 30 8 30 10 0 19 -9 19 -20 0 -10 26 -16 58 -12 32 3 70 -1
84 -9 15 -9 34 -11 45 -5 10 6 51 14 91 16 39 2 94 11 120 20 31 10 44 9 36
-4 -7 -10 0 -19 16 -19 16 0 23 8 17 17 -5 10 11 12 36 6 26 -7 70 -13 97 -15
28 -2 56 -11 63 -22 16 -24 61 4 46 28 -15 25 35 24 103 -2 66 -25 168 -6 168
30 0 15 -18 31 -40 37 -22 6 -35 2 -29 -8 6 -10 2 -18 -9 -18 -11 0 -24 7 -30
16 -5 9 -96 18 -201 19 -104 1 -197 6 -206 11 -8 5 -42 6 -75 2 -266 -28 -836
-9 -918 31 -69 33 -134 44 -305 49 -119 4 -232 13 -250 21 -23 9 -45 -5 -76
-47z"/>
<path d="M5270 2658 c-33 -7 -155 -14 -271 -16 -169 -2 -226 -10 -290 -43 -74
-38 -114 -40 -585 -39 -336 0 -519 -7 -547 -22 -24 -12 -37 -13 -30 -2 8 12
-20 18 -72 15 -47 -2 -137 -6 -201 -7 l-116 -4 47 -51 c45 -48 115 -52 115 -7
0 10 14 18 30 18 17 0 30 -9 30 -20 0 -11 29 -15 69 -9 38 6 87 2 109 -10 25
-13 44 -14 51 -2 8 12 31 13 60 1 35 -13 50 -10 59 11 11 29 54 41 50 14 -7
-39 5 -48 32 -25 21 18 30 18 30 2 0 -16 17 -14 56 6 33 17 67 22 83 12 15 -9
57 -13 93 -8 36 4 71 -1 78 -12 7 -11 21 -20 32 -20 11 0 15 8 9 18 -6 10 7
14 29 8 22 -6 40 -18 40 -26 0 -9 18 -12 40 -6 22 6 40 17 40 25 0 21 184 14
220 -8 27 -17 27 -15 0 18 -28 35 -27 36 13 14 33 -17 46 -17 51 0 5 15 24 6
50 -21 26 -29 47 -37 55 -24 20 32 71 27 71 -8 0 -23 10 -25 53 -9 38 15 58
14 68 -2 10 -17 18 -17 28 -1 8 13 22 17 32 11 11 -6 19 0 20 15 0 15 9 11 21
-10 15 -25 28 -30 45 -16 33 27 99 15 110 -20 5 -15 24 -41 42 -58 46 -42 53
-149 8 -132 -37 15 -87 -20 -87 -61 0 -19 18 -27 55 -23 53 6 55 2 58 -90 2
-74 -3 -91 -22 -75 -14 11 -31 15 -38 7 -25 -24 -13 -82 19 -94 23 -9 29 -26
20 -57 -7 -25 -17 -139 -23 -255 -6 -115 -24 -244 -40 -285 -20 -51 -22 -75
-6 -75 14 0 18 -22 10 -61 -11 -56 -6 -64 57 -90 39 -16 70 -43 70 -59 0 -17
9 -30 20 -30 12 0 20 -81 20 -202 l0 -202 48 12 c49 12 105 -29 77 -56 -8 -9
2 -28 24 -43 24 -19 41 -59 45 -114 4 -47 23 -98 42 -115 40 -35 57 -120 23
-120 -13 0 -18 -13 -12 -29 7 -19 -6 -31 -43 -37 -30 -4 -7 -9 51 -11 58 -2
105 -12 105 -23 0 -11 33 -20 72 -20 l72 0 -13 75 c-8 41 -31 128 -53 193 -21
65 -38 135 -38 155 0 20 -9 37 -20 37 -11 0 -20 17 -20 38 0 21 -17 73 -37
115 -150 308 -156 318 -251 415 l-78 79 23 252 c99 1071 81 1337 -87 1299z"/>
<path d="M3099 2029 c-13 -16 -37 -29 -52 -29 -16 0 -33 -13 -40 -30 -6 -16
-23 -30 -38 -30 -15 0 -27 -16 -27 -35 -1 -94 -14 -157 -36 -175 -13 -11 -27
-56 -30 -100 -5 -70 -12 -79 -52 -75 -41 4 -45 -2 -37 -55 5 -33 2 -60 -6 -60
-16 0 -52 -164 -47 -216 1 -16 -10 -22 -28 -15 -23 9 -27 -1 -17 -46 7 -32 16
-135 19 -230 9 -224 77 -301 262 -294 11 0 132 2 270 3 139 2 268 14 290 26
57 32 111 94 98 115 -6 9 6 17 26 17 29 1 31 4 7 19 -30 19 -37 42 -54 174 -6
47 -2 88 10 95 12 7 16 28 9 46 -9 22 -5 28 10 18 14 -8 20 -4 14 12 -5 14
-13 85 -19 156 -17 225 -26 265 -59 284 -18 10 -28 27 -21 37 6 10 -4 13 -23
5 -29 -11 -32 -4 -20 43 10 39 4 67 -19 92 -18 20 -27 47 -19 59 55 89 -303
271 -371 189z m180 -145 c32 -25 48 -68 59 -155 12 -89 34 -146 89 -226 45
-66 73 -131 74 -170 0 -35 13 -85 29 -113 46 -81 35 -110 -68 -177 -111 -72
-127 -75 -162 -33 -30 36 -165 40 -219 6 -88 -55 -270 22 -277 117 -5 68 2 86
45 115 29 19 51 52 51 77 1 25 23 81 50 125 84 137 110 206 110 294 1 153 115
225 219 140z m-399 -996 c-15 -96 4 -127 51 -87 39 32 62 9 30 -30 -14 -16
-53 -29 -88 -27 l-63 2 0 123 c0 114 3 123 42 116 37 -8 40 -18 28 -97z m157
57 c-7 -84 5 -165 25 -165 12 0 18 28 15 65 -13 121 125 94 148 -30 7 -42 2
-55 -24 -55 -26 0 -32 14 -25 60 7 47 1 60 -26 60 -27 0 -33 -13 -26 -60 9
-57 6 -60 -62 -60 -70 0 -72 2 -68 75 2 41 4 91 5 110 0 19 10 35 21 35 11 0
18 -16 17 -35z m263 -107 c7 -46 16 -60 27 -42 9 15 11 48 5 75 -9 36 -5 49
18 49 20 0 30 -19 30 -57 0 -70 18 -90 54 -60 23 19 22 30 -4 70 -29 44 -28
47 10 47 22 0 41 -11 42 -25 1 -20 3 -20 11 0 11 26 67 36 67 12 0 -8 -14 -29
-31 -48 -27 -30 -27 -36 0 -59 17 -14 31 -33 31 -42 0 -31 -61 -19 -73 14 -8
19 -18 23 -25 11 -13 -21 -174 -39 -189 -22 -23 26 -29 161 -7 154 13 -5 29
-39 34 -77z"/>
<path d="M3194 1767 c-25 -25 -15 -46 16 -34 19 7 30 0 30 -20 0 -24 -14 -29
-56 -21 -38 8 -65 1 -83 -20 -22 -27 -21 -32 7 -32 17 0 32 -9 32 -20 0 -11
14 -20 31 -20 17 0 26 8 20 18 -6 10 2 23 17 29 41 15 27 -47 -16 -71 -23 -13
-43 -12 -62 4 -27 22 -91 -89 -123 -214 -6 -26 -21 -40 -34 -34 -13 7 11 -20
53 -60 56 -53 73 -83 64 -112 -9 -30 -1 -42 39 -52 95 -23 148 5 163 87 7 41
30 93 50 116 36 39 35 43 -15 150 -28 60 -57 153 -64 207 -12 93 -38 130 -69
99z"/>
<path d="M2886 1235 c-80 -88 -71 -145 28 -172 182 -49 200 -28 106 122 -68
108 -78 112 -134 50z"/>
<path d="M3329 1213 c-46 -182 -5 -230 117 -139 60 46 72 65 62 106 -16 71
-41 91 -77 61 -24 -20 -37 -21 -60 -2 -24 20 -32 16 -42 -26z"/>
<path d="M959 600 c-7 -235 -1 -481 13 -503 9 -14 5 -18 -9 -9 -13 8 -23 5
-23 -6 0 -11 -34 -23 -75 -27 -41 -5 -1 -10 90 -12 114 -2 165 4 165 20 0 13
-6 18 -13 11 -41 -42 -66 70 -66 301 -1 135 -9 245 -18 245 -9 0 -27 20 -39
45 -18 39 -22 30 -25 -65z"/>
<path d="M5333 495 c-18 -28 -30 -106 -32 -203 -1 -87 -11 -174 -22 -194 -19
-35 -107 -37 -2054 -38 -1770 -1 -2038 -5 -2064 -30 -26 -27 207 -30 2006 -30
1352 0 2031 7 2023 20 -8 13 46 21 144 23 86 2 127 7 91 11 l-64 8 7 124 c5
68 15 176 23 239 16 125 -7 152 -58 70z"/>
</g>
</svg>
